<?xml version="1.0" encoding="iso-8859-1"?>
<!-- Generator: Adobe Illustrator 19.0.0, SVG Export Plug-In . SVG Version: 6.00 Build 0)  -->
<svg version="1.1" id="Layer_1" xmlns="http://www.w3.org/2000/svg" xmlns:xlink="http://www.w3.org/1999/xlink" x="0px" y="0px"
	 viewBox="0 0 512 512" style="enable-background:new 0 0 512 512;" xml:space="preserve">
<g>
	<rect x="11.13" y="445.217" style="fill:#EBEBEB;" width="489.739" height="44.522"/>
	<rect x="11.13" y="333.913" style="fill:#EBEBEB;" width="489.739" height="44.522"/>
</g>
<g>
	<rect x="228.174" y="378.435" style="fill:#A8A8A8;" width="55.652" height="66.783"/>
	<rect x="61.217" y="378.435" style="fill:#A8A8A8;" width="55.652" height="66.783"/>
	<rect x="395.13" y="378.435" style="fill:#A8A8A8;" width="55.652" height="66.783"/>
</g>
<g>
	<rect x="11.13" y="289.391" style="fill:#FFAC3D;" width="489.739" height="44.522"/>
	<rect x="11.13" y="178.087" style="fill:#FFAC3D;" width="489.739" height="44.522"/>
</g>
<g>
	<rect x="228.174" y="222.609" style="fill:#A8A8A8;" width="55.652" height="66.783"/>
	<rect x="61.217" y="222.609" style="fill:#A8A8A8;" width="55.652" height="66.783"/>
	<rect x="395.13" y="222.609" style="fill:#A8A8A8;" width="55.652" height="66.783"/>
</g>
<g>
	<rect x="11.13" y="133.565" style="fill:#EBEBEB;" width="489.739" height="44.522"/>
	<rect x="11.13" y="22.261" style="fill:#EBEBEB;" width="489.739" height="44.522"/>
</g>
<g>
	<rect x="228.174" y="66.783" style="fill:#A8A8A8;" width="55.652" height="66.783"/>
	<rect x="61.217" y="66.783" style="fill:#A8A8A8;" width="55.652" height="66.783"/>
	<rect x="395.13" y="66.783" style="fill:#A8A8A8;" width="55.652" height="66.783"/>
</g>
<path style="fill:#231F20;" d="M500.87,77.913c6.146,0,11.13-4.984,11.13-11.13V22.261c0-6.146-4.984-11.13-11.13-11.13H11.13
	C4.984,11.13,0,16.115,0,22.261v44.522c0,6.146,4.984,11.13,11.13,11.13h38.957v44.522H11.13c-6.146,0-11.13,4.984-11.13,11.13
	v89.043c0,6.146,4.984,11.13,11.13,11.13h38.957v44.522H11.13c-6.146,0-11.13,4.984-11.13,11.13v89.043
	c0,6.146,4.984,11.13,11.13,11.13h38.957v44.522H11.13c-6.146,0-11.13,4.984-11.13,11.13v44.522c0,6.146,4.984,11.13,11.13,11.13
	H500.87c6.146,0,11.13-4.984,11.13-11.13v-44.522c0-6.146-4.984-11.13-11.13-11.13h-38.957v-44.522h38.957
	c6.146,0,11.13-4.984,11.13-11.13v-89.043c0-6.146-4.984-11.13-11.13-11.13h-38.957v-44.522h38.957c6.146,0,11.13-4.984,11.13-11.13
	v-89.043c0-6.146-4.984-11.13-11.13-11.13h-38.957V77.913H500.87z M22.261,33.391h467.478v22.261H22.261V33.391z M294.957,122.435
	V77.913H384v44.522H294.957z M128,122.435V77.913h89.043v44.522H128z M239.304,77.913h33.391v44.522h-33.391V77.913z M72.348,77.913
	h33.391v44.522H72.348V77.913z M72.348,233.739h33.391v44.522H72.348V233.739z M217.043,233.739v44.522H128v-44.522H217.043z
	 M384,233.739v44.522h-89.043v-44.522H384z M272.696,278.261h-33.391v-44.522h33.391V278.261z M72.348,389.565h33.391v44.522H72.348
	V389.565z M217.043,389.565v44.522H128v-44.522H217.043z M384,389.565v44.522h-89.043v-44.522H384z M272.696,434.087h-33.391
	v-44.522h33.391V434.087z M489.739,478.609H22.261v-22.261h467.478V478.609z M439.652,434.087h-33.391v-44.522h33.391V434.087z
	 M489.739,367.304H22.261v-22.261h467.478V367.304z M489.739,322.783H22.261v-22.261h467.478V322.783z M439.652,278.261h-33.391
	v-44.522h33.391V278.261z M489.739,211.478H22.261v-22.261h467.478V211.478z M489.739,166.957H22.261v-22.261h467.478V166.957z
	 M439.652,122.435h-33.391V77.913h33.391V122.435z"/>
<g>
</g>
<g>
</g>
<g>
</g>
<g>
</g>
<g>
</g>
<g>
</g>
<g>
</g>
<g>
</g>
<g>
</g>
<g>
</g>
<g>
</g>
<g>
</g>
<g>
</g>
<g>
</g>
<g>
</g>
</svg>
